<svg width="4000" height="1250" viewBox="0 0 4000 1250" fill="none" xmlns="http://www.w3.org/2000/svg">
<rect width="4000" height="1250" fill="#1E1E1E"/>
<rect width="4000" height="1250" fill="black"/>
<path d="M3408.3 715.2C3389.9 715.2 3372.16 713.067 3355.1 708.8C3338.3 704.267 3324.96 698.667 3315.1 692L3335.9 647.2C3345.76 653.333 3357.36 658.4 3370.7 662.4C3384.3 666.133 3397.63 668 3410.7 668C3425.1 668 3435.23 666.267 3441.1 662.8C3447.23 659.333 3450.3 654.533 3450.3 648.4C3450.3 643.333 3447.9 639.6 3443.1 637.2C3438.56 634.533 3432.43 632.533 3424.7 631.2C3416.96 629.867 3408.43 628.533 3399.1 627.2C3390.03 625.867 3380.83 624.133 3371.5 622C3362.16 619.6 3353.63 616.133 3345.9 611.6C3338.16 607.067 3331.9 600.933 3327.1 593.2C3322.56 585.467 3320.3 575.467 3320.3 563.2C3320.3 549.6 3324.16 537.6 3331.9 527.2C3339.9 516.8 3351.36 508.667 3366.3 502.8C3381.23 496.667 3399.1 493.6 3419.9 493.6C3434.56 493.6 3449.5 495.2 3464.7 498.4C3479.9 501.6 3492.56 506.267 3502.7 512.4L3481.9 556.8C3471.5 550.667 3460.96 546.533 3450.3 544.4C3439.9 542 3429.76 540.8 3419.9 540.8C3406.03 540.8 3395.9 542.667 3389.5 546.4C3383.1 550.133 3379.9 554.933 3379.9 560.8C3379.9 566.133 3382.16 570.133 3386.7 572.8C3391.5 575.467 3397.76 577.6 3405.5 579.2C3413.23 580.8 3421.63 582.267 3430.7 583.6C3440.03 584.667 3449.36 586.4 3458.7 588.8C3468.03 591.2 3476.43 594.667 3483.9 599.2C3491.63 603.467 3497.9 609.467 3502.7 617.2C3507.5 624.667 3509.9 634.533 3509.9 646.8C3509.9 660.133 3505.9 672 3497.9 682.4C3489.9 692.533 3478.3 700.533 3463.1 706.4C3448.16 712.267 3429.9 715.2 3408.3 715.2Z" fill="#6BCFE0"/>
<path d="M3190.35 715.2C3165.82 715.2 3144.22 710.4 3125.55 700.8C3107.15 691.2 3092.89 678.133 3082.75 661.6C3072.62 644.8 3067.55 625.733 3067.55 604.4C3067.55 582.8 3072.49 563.733 3082.35 547.2C3092.49 530.4 3106.22 517.333 3123.55 508C3140.89 498.4 3160.49 493.6 3182.35 493.6C3203.42 493.6 3222.35 498.133 3239.15 507.2C3256.22 516 3269.69 528.8 3279.55 545.6C3289.42 562.133 3294.35 582 3294.35 605.2C3294.35 607.6 3294.22 610.4 3293.95 613.6C3293.69 616.533 3293.42 619.333 3293.15 622H3118.35V585.6H3260.35L3236.35 596.4C3236.35 585.2 3234.09 575.467 3229.55 567.2C3225.02 558.933 3218.75 552.533 3210.75 548C3202.75 543.2 3193.42 540.8 3182.75 540.8C3172.09 540.8 3162.62 543.2 3154.35 548C3146.35 552.533 3140.09 559.067 3135.55 567.6C3131.02 575.867 3128.75 585.733 3128.75 597.2V606.8C3128.75 618.533 3131.29 628.933 3136.35 638C3141.69 646.8 3149.02 653.6 3158.35 658.4C3167.95 662.933 3179.15 665.2 3191.95 665.2C3203.42 665.2 3213.42 663.467 3221.95 660C3230.75 656.533 3238.75 651.333 3245.95 644.4L3279.15 680.4C3269.29 691.6 3256.89 700.267 3241.95 706.4C3227.02 712.267 3209.82 715.2 3190.35 715.2Z" fill="#6BCFE0"/>
<path d="M2938.01 715.2C2913.48 715.2 2891.88 710.4 2873.21 700.8C2854.81 691.2 2840.54 678.133 2830.41 661.6C2820.28 644.8 2815.21 625.733 2815.21 604.4C2815.21 582.8 2820.14 563.733 2830.01 547.2C2840.14 530.4 2853.88 517.333 2871.21 508C2888.54 498.4 2908.14 493.6 2930.01 493.6C2951.08 493.6 2970.01 498.133 2986.81 507.2C3003.88 516 3017.34 528.8 3027.21 545.6C3037.08 562.133 3042.01 582 3042.01 605.2C3042.01 607.6 3041.88 610.4 3041.61 613.6C3041.34 616.533 3041.08 619.333 3040.81 622H2866.01V585.6H3008.01L2984.01 596.4C2984.01 585.2 2981.74 575.467 2977.21 567.2C2972.68 558.933 2966.41 552.533 2958.41 548C2950.41 543.2 2941.08 540.8 2930.41 540.8C2919.74 540.8 2910.28 543.2 2902.01 548C2894.01 552.533 2887.74 559.067 2883.21 567.6C2878.68 575.867 2876.41 585.733 2876.41 597.2V606.8C2876.41 618.533 2878.94 628.933 2884.01 638C2889.34 646.8 2896.68 653.6 2906.01 658.4C2915.61 662.933 2926.81 665.2 2939.61 665.2C2951.08 665.2 2961.08 663.467 2969.61 660C2978.41 656.533 2986.41 651.333 2993.61 644.4L3026.81 680.4C3016.94 691.6 3004.54 700.267 2989.61 706.4C2974.68 712.267 2957.48 715.2 2938.01 715.2Z" fill="#6BCFE0"/>
<path d="M2662.07 712V496.8H2721.67V557.6L2713.27 540C2719.67 524.8 2729.94 513.333 2744.07 505.6C2758.2 497.6 2775.4 493.6 2795.67 493.6V551.2C2793 550.933 2790.6 550.8 2788.47 550.8C2786.34 550.533 2784.07 550.4 2781.67 550.4C2764.6 550.4 2750.74 555.333 2740.07 565.2C2729.67 574.8 2724.47 589.867 2724.47 610.4V712H2662.07Z" fill="#6BCFE0"/>
<path d="M2483.19 792.8C2462.92 792.8 2443.32 790.267 2424.39 785.2C2405.72 780.4 2390.12 773.067 2377.59 763.2L2402.39 718.4C2411.46 725.867 2422.92 731.733 2436.79 736C2450.92 740.533 2464.79 742.8 2478.39 742.8C2500.52 742.8 2516.52 737.867 2526.39 728C2536.52 718.133 2541.59 703.467 2541.59 684V651.6L2545.59 597.6L2544.79 543.2V496.8H2603.99V676C2603.99 716 2593.59 745.467 2572.79 764.4C2551.99 783.333 2522.12 792.8 2483.19 792.8ZM2473.59 701.6C2453.59 701.6 2435.46 697.333 2419.19 688.8C2403.19 680 2390.26 667.867 2380.39 652.4C2370.79 636.667 2365.99 618.4 2365.99 597.6C2365.99 576.533 2370.79 558.267 2380.39 542.8C2390.26 527.067 2403.19 514.933 2419.19 506.4C2435.46 497.867 2453.59 493.6 2473.59 493.6C2491.72 493.6 2507.72 497.333 2521.59 504.8C2535.46 512 2546.26 523.333 2553.99 538.8C2561.72 554 2565.59 573.6 2565.59 597.6C2565.59 621.333 2561.72 640.933 2553.99 656.4C2546.26 671.6 2535.46 682.933 2521.59 690.4C2507.72 697.867 2491.72 701.6 2473.59 701.6ZM2485.99 650.4C2496.92 650.4 2506.66 648.267 2515.19 644C2523.72 639.467 2530.39 633.2 2535.19 625.2C2539.99 617.2 2542.39 608 2542.39 597.6C2542.39 586.933 2539.99 577.733 2535.19 570C2530.39 562 2523.72 555.867 2515.19 551.6C2506.66 547.067 2496.92 544.8 2485.99 544.8C2475.06 544.8 2465.32 547.067 2456.79 551.6C2448.26 555.867 2441.46 562 2436.39 570C2431.59 577.733 2429.19 586.933 2429.19 597.6C2429.19 608 2431.59 617.2 2436.39 625.2C2441.46 633.2 2448.26 639.467 2456.79 644C2465.32 648.267 2475.06 650.4 2485.99 650.4Z" fill="#6BCFE0"/>
<path d="M2236.45 715.2C2211.91 715.2 2190.31 710.4 2171.65 700.8C2153.25 691.2 2138.98 678.133 2128.85 661.6C2118.71 644.8 2113.65 625.733 2113.65 604.4C2113.65 582.8 2118.58 563.733 2128.45 547.2C2138.58 530.4 2152.31 517.333 2169.65 508C2186.98 498.4 2206.58 493.6 2228.45 493.6C2249.51 493.6 2268.45 498.133 2285.25 507.2C2302.31 516 2315.78 528.8 2325.65 545.6C2335.51 562.133 2340.45 582 2340.45 605.2C2340.45 607.6 2340.31 610.4 2340.05 613.6C2339.78 616.533 2339.51 619.333 2339.25 622H2164.45V585.6H2306.45L2282.45 596.4C2282.45 585.2 2280.18 575.467 2275.65 567.2C2271.11 558.933 2264.85 552.533 2256.85 548C2248.85 543.2 2239.51 540.8 2228.85 540.8C2218.18 540.8 2208.71 543.2 2200.45 548C2192.45 552.533 2186.18 559.067 2181.65 567.6C2177.11 575.867 2174.85 585.733 2174.85 597.2V606.8C2174.85 618.533 2177.38 628.933 2182.45 638C2187.78 646.8 2195.11 653.6 2204.45 658.4C2214.05 662.933 2225.25 665.2 2238.05 665.2C2249.51 665.2 2259.51 663.467 2268.05 660C2276.85 656.533 2284.85 651.333 2292.05 644.4L2325.25 680.4C2315.38 691.6 2302.98 700.267 2288.05 706.4C2273.11 712.267 2255.91 715.2 2236.45 715.2Z" fill="#6BCFE0"/>
<path d="M1803.58 712V432H1930.78C1961.18 432 1987.98 437.867 2011.18 449.6C2034.38 461.067 2052.51 477.2 2065.58 498C2078.64 518.8 2085.18 543.467 2085.18 572C2085.18 600.267 2078.64 624.933 2065.58 646C2052.51 666.8 2034.38 683.067 2011.18 694.8C1987.98 706.267 1961.18 712 1930.78 712H1803.58ZM1868.38 658.8H1927.58C1946.24 658.8 1962.38 655.333 1975.98 648.4C1989.84 641.2 2000.51 631.067 2007.98 618C2015.71 604.933 2019.58 589.6 2019.58 572C2019.58 554.133 2015.71 538.8 2007.98 526C2000.51 512.933 1989.84 502.933 1975.98 496C1962.38 488.8 1946.24 485.2 1927.58 485.2H1868.38V658.8Z" fill="#6BCFE0"/>
<path d="M1545.8 715.2C1527.4 715.2 1509.66 713.067 1492.6 708.8C1475.8 704.267 1462.46 698.667 1452.6 692L1473.4 647.2C1483.26 653.333 1494.86 658.4 1508.2 662.4C1521.8 666.133 1535.13 668 1548.2 668C1562.6 668 1572.73 666.267 1578.6 662.8C1584.73 659.333 1587.8 654.533 1587.8 648.4C1587.8 643.333 1585.4 639.6 1580.6 637.2C1576.06 634.533 1569.93 632.533 1562.2 631.2C1554.46 629.867 1545.93 628.533 1536.6 627.2C1527.53 625.867 1518.33 624.133 1509 622C1499.66 619.6 1491.13 616.133 1483.4 611.6C1475.66 607.067 1469.4 600.933 1464.6 593.2C1460.06 585.467 1457.8 575.467 1457.8 563.2C1457.8 549.6 1461.66 537.6 1469.4 527.2C1477.4 516.8 1488.86 508.667 1503.8 502.8C1518.73 496.667 1536.6 493.6 1557.4 493.6C1572.06 493.6 1587 495.2 1602.2 498.4C1617.4 501.6 1630.06 506.267 1640.2 512.4L1619.4 556.8C1609 550.667 1598.46 546.533 1587.8 544.4C1577.4 542 1567.26 540.8 1557.4 540.8C1543.53 540.8 1533.4 542.667 1527 546.4C1520.6 550.133 1517.4 554.933 1517.4 560.8C1517.4 566.133 1519.66 570.133 1524.2 572.8C1529 575.467 1535.26 577.6 1543 579.2C1550.73 580.8 1559.13 582.267 1568.2 583.6C1577.53 584.667 1586.86 586.4 1596.2 588.8C1605.53 591.2 1613.93 594.667 1621.4 599.2C1629.13 603.467 1635.4 609.467 1640.2 617.2C1645 624.667 1647.4 634.533 1647.4 646.8C1647.4 660.133 1643.4 672 1635.4 682.4C1627.4 692.533 1615.8 700.533 1600.6 706.4C1585.66 712.267 1567.4 715.2 1545.8 715.2Z" fill="#6BCFE0"/>
<path d="M1433.07 592.6C1433.07 615.8 1428.4 636.467 1419.07 654.6C1409.47 672.733 1396.27 687 1379.47 697.4C1362.67 707.533 1343.6 712.6 1322.27 712.6C1300.67 712.6 1281.6 707.533 1265.07 697.4C1248.27 687 1235.2 672.733 1225.87 654.6C1216.27 636.467 1211.47 615.8 1211.47 592.6C1211.47 569.933 1216.27 550.2 1225.87 533.4C1235.2 516.6 1248.67 504.2 1266.27 496.2L1292.27 544.6C1282.14 550.2 1274.67 557.267 1269.87 565.8C1265.07 574.067 1262.67 583.133 1262.67 593C1262.67 603.667 1265.07 613.267 1269.87 621.8C1274.67 630.333 1281.47 637.133 1290.27 642.2C1299.07 647 1309.74 649.4 1322.27 649.4C1334.8 649.4 1345.47 647 1354.27 642.2C1363.07 637.133 1369.87 630.333 1374.67 621.8C1379.47 613.267 1381.87 603.667 1381.87 593C1381.87 583.133 1379.6 574.067 1375.07 565.8C1370.27 557.267 1362.67 550.2 1352.27 544.6L1378.67 496.2C1396 504.2 1409.47 516.6 1419.07 533.4C1428.4 550.2 1433.07 569.933 1433.07 592.6Z" fill="white"/>
<path d="M1089.74 493.6C1106.81 493.6 1122.01 497.067 1135.34 504C1148.94 510.667 1159.61 521.067 1167.34 535.2C1175.08 549.067 1178.94 566.933 1178.94 588.8V712H1116.54V598.4C1116.54 581.067 1112.68 568.267 1104.94 560C1097.48 551.733 1086.81 547.6 1072.94 547.6C1063.08 547.6 1054.14 549.733 1046.14 554C1038.41 558 1032.28 564.267 1027.74 572.8C1023.48 581.333 1021.34 592.267 1021.34 605.6V712H958.944V496.8H1018.54V556.4L1007.34 538.4C1015.08 524 1026.14 512.933 1040.54 505.2C1054.94 497.467 1071.34 493.6 1089.74 493.6Z" fill="#6BCFE0"/>
<path d="M838.631 712V496.8H901.031V712H838.631ZM869.831 466.8C858.365 466.8 849.031 463.467 841.831 456.8C834.631 450.133 831.031 441.867 831.031 432C831.031 422.133 834.631 413.867 841.831 407.2C849.031 400.533 858.365 397.2 869.831 397.2C881.298 397.2 890.631 400.4 897.831 406.8C905.031 412.933 908.631 420.933 908.631 430.8C908.631 441.2 905.031 449.867 897.831 456.8C890.898 463.467 881.565 466.8 869.831 466.8Z" fill="#6BCFE0"/>
<path d="M461 712V432H514.6L633.8 629.6H605.4L722.6 432H775.8L776.6 712H715.8L715.4 525.2H726.6L633 682.4H603.8L508.2 525.2H521.8V712H461Z" fill="#6BCFE0"/>
<rect x="1301.8" y="744" width="50" height="120" rx="20" fill="white"/>
<circle cx="1236.8" cy="412" r="40" fill="black" stroke="white" stroke-width="30"/>
</svg>
